# xmcd CD database file
#
# Track frame offsets:
#	187
#	16247
#	34512
#	55407
#	70220
#	82297
#	100337
#	111525
#	128680
#	140245
#	153900
#	170220
#	187742
#	207402
#	225137
#	245832
#	263255
#	281372
#	298307
#	315580
#
# Disc length: 4438 seconds
#
# Revision: 1
# Processed by: cddbd v1.4PL0 Copyright (c) Steve Scherf et al.
# Submitted via: CDex 1.51
#
DISCID=24115414
DTITLE=Willie Nelson - Star Box Willie Nelson 20 Songs
DYEAR=1900
DGENRE=
TTITLE0=Always On My Mind
TTITLE1=A Whiter Shade of Pale
TTITLE2=Bridge Over Troubled Water
TTITLE3=Something
TTITLE4=That Lucky Old Sun
TTITLE5=Danny Boy
TTITLE6=Summertime
TTITLE7=Let The Rest Of The World Go By
TTITLE8=Mona Lisa
TTITLE9=Who's Sorry Now?
TTITLE10=Over The Rainbow
TTITLE11=Stardust
TTITLE12=Georgia On My Mind
TTITLE13=All Of Me
TTITLE14=September Song
TTITLE15=Without A Song
TTITLE16=Autumn Leaves
TTITLE17=Golden Earrings
TTITLE18=Harbor Lights
TTITLE19=As Time Goes By
EXTD=
EXTT0=
EXTT1=
EXTT2=
EXTT3=
EXTT4=
EXTT5=
EXTT6=
EXTT7=
EXTT8=
EXTT9=
EXTT10=
EXTT11=
EXTT12=
EXTT13=
EXTT14=
EXTT15=
EXTT16=
EXTT17=
EXTT18=
EXTT19=
PLAYORDER=
